<svg xmlns="http://www.w3.org/2000/svg" viewBox="0 0 120 120" fill="none">
  <defs>
    <linearGradient id="burstGrad2" x1="0%" y1="100%" x2="100%" y2="0%">
      <stop offset="0%" stop-color="#FFD966" stop-opacity="0.35"/>
      <stop offset="100%" stop-color="#F28C28" stop-opacity="0.15"/>
    </linearGradient>
  </defs>
  <!-- Sparkle pattern -->
  <path d="M60 5 L63 50 L60 60 L57 50 Z" fill="url(#burstGrad2)"/>
  <path d="M60 115 L57 70 L60 60 L63 70 Z" fill="url(#burstGrad2)"/>
  <path d="M5 60 L50 57 L60 60 L50 63 Z" fill="url(#burstGrad2)"/>
  <path d="M115 60 L70 63 L60 60 L70 57 Z" fill="url(#burstGrad2)"/>
  <path d="M20 20 L52 52 L60 60 L48 48 Z" fill="url(#burstGrad2)"/>
  <path d="M100 100 L68 68 L60 60 L72 72 Z" fill="url(#burstGrad2)"/>
  <path d="M100 20 L68 52 L60 60 L72 48 Z" fill="url(#burstGrad2)"/>
  <path d="M20 100 L52 68 L60 60 L48 72 Z" fill="url(#burstGrad2)"/>
</svg>
